<mxfile host="app.diagrams.net" modified="2022-10-23T01:17:36.578Z" agent="5.0 (Windows)" etag="kCjWg5OOXe56fF284Gow" version="20.5.0" type="github">
  <diagram id="V8dSmbORWP49UcVRykCs" name="Page-1">
    <mxGraphModel dx="1027" dy="531" grid="1" gridSize="10" guides="1" tooltips="1" connect="1" arrows="1" fold="1" page="1" pageScale="1" pageWidth="850" pageHeight="1100" math="0" shadow="0">
      <root>
        <mxCell id="0" />
        <mxCell id="1" parent="0" />
        <mxCell id="CUxsv4Kta_BDDFA2uctb-1" value="S&lt;sub&gt;1&lt;/sub&gt;BAET" style="ellipse;whiteSpace=wrap;html=1;aspect=fixed;fontSize=16;" vertex="1" parent="1">
          <mxGeometry x="121" y="120" width="80" height="80" as="geometry" />
        </mxCell>
        <mxCell id="CUxsv4Kta_BDDFA2uctb-2" value="&lt;font style=&quot;font-size: 16px;&quot;&gt;S&lt;sub&gt;2&lt;/sub&gt;&lt;/font&gt;&lt;font style=&quot;font-size: 16px;&quot;&gt;BAET&lt;/font&gt;" style="ellipse;whiteSpace=wrap;html=1;aspect=fixed;fontSize=15;" vertex="1" parent="1">
          <mxGeometry x="280" y="120" width="80" height="80" as="geometry" />
        </mxCell>
        <mxCell id="CUxsv4Kta_BDDFA2uctb-3" value="&lt;font style=&quot;font-size: 16px;&quot;&gt;S&lt;sub&gt;3&lt;/sub&gt;&lt;/font&gt;&lt;font style=&quot;font-size: 16px;&quot;&gt;BAET&lt;/font&gt;" style="ellipse;whiteSpace=wrap;html=1;aspect=fixed;" vertex="1" parent="1">
          <mxGeometry x="440" y="120" width="80" height="80" as="geometry" />
        </mxCell>
        <mxCell id="CUxsv4Kta_BDDFA2uctb-4" value="S&lt;sub&gt;1&lt;/sub&gt;NZMS" style="ellipse;whiteSpace=wrap;html=1;aspect=fixed;fontSize=16;" vertex="1" parent="1">
          <mxGeometry x="121" y="280" width="80" height="80" as="geometry" />
        </mxCell>
        <mxCell id="CUxsv4Kta_BDDFA2uctb-5" value="&lt;font style=&quot;font-size: 16px;&quot;&gt;S&lt;sub&gt;2&lt;/sub&gt;&lt;/font&gt;&lt;font style=&quot;font-size: 16px;&quot;&gt;NZMS&lt;/font&gt;" style="ellipse;whiteSpace=wrap;html=1;aspect=fixed;" vertex="1" parent="1">
          <mxGeometry x="280" y="280" width="80" height="80" as="geometry" />
        </mxCell>
        <mxCell id="CUxsv4Kta_BDDFA2uctb-6" value="&lt;font style=&quot;font-size: 16px;&quot;&gt;S&lt;sub&gt;3&lt;/sub&gt;NZMS&lt;/font&gt;" style="ellipse;whiteSpace=wrap;html=1;aspect=fixed;" vertex="1" parent="1">
          <mxGeometry x="440" y="280" width="80" height="80" as="geometry" />
        </mxCell>
        <mxCell id="CUxsv4Kta_BDDFA2uctb-7" value="&lt;font style=&quot;font-size: 16px;&quot;&gt;S&lt;sub&gt;1&lt;/sub&gt;&lt;/font&gt;&lt;font style=&quot;font-size: 16px;&quot;&gt;HYDO&lt;/font&gt;" style="ellipse;whiteSpace=wrap;html=1;aspect=fixed;" vertex="1" parent="1">
          <mxGeometry x="121" y="440" width="80" height="80" as="geometry" />
        </mxCell>
        <mxCell id="CUxsv4Kta_BDDFA2uctb-8" value="&lt;font style=&quot;font-size: 16px;&quot;&gt;S&lt;sub&gt;2&lt;/sub&gt;&lt;/font&gt;&lt;font style=&quot;font-size: 16px;&quot;&gt;HYDO&lt;/font&gt;" style="ellipse;whiteSpace=wrap;html=1;aspect=fixed;" vertex="1" parent="1">
          <mxGeometry x="280" y="440" width="80" height="80" as="geometry" />
        </mxCell>
        <mxCell id="CUxsv4Kta_BDDFA2uctb-9" value="&lt;font style=&quot;font-size: 16px;&quot;&gt;S&lt;sub&gt;3&lt;/sub&gt;&lt;/font&gt;&lt;font style=&quot;font-size: 16px;&quot;&gt;HYDO&lt;/font&gt;" style="ellipse;whiteSpace=wrap;html=1;aspect=fixed;" vertex="1" parent="1">
          <mxGeometry x="440" y="440" width="80" height="80" as="geometry" />
        </mxCell>
        <mxCell id="CUxsv4Kta_BDDFA2uctb-14" value="&lt;font style=&quot;font-size: 16px;&quot;&gt;G&lt;sub&gt;1&lt;/sub&gt;&lt;/font&gt;" style="endArrow=classic;html=1;rounded=0;exitX=1;exitY=0.5;exitDx=0;exitDy=0;" edge="1" parent="1" source="CUxsv4Kta_BDDFA2uctb-7" target="CUxsv4Kta_BDDFA2uctb-8">
          <mxGeometry width="50" height="50" relative="1" as="geometry">
            <mxPoint x="400" y="380" as="sourcePoint" />
            <mxPoint x="450" y="330" as="targetPoint" />
          </mxGeometry>
        </mxCell>
        <mxCell id="CUxsv4Kta_BDDFA2uctb-15" value="&lt;font style=&quot;font-size: 16px;&quot;&gt;G&lt;sub&gt;2&lt;/sub&gt;&lt;/font&gt;" style="endArrow=classic;html=1;rounded=0;exitX=1;exitY=0.5;exitDx=0;exitDy=0;entryX=0;entryY=0.5;entryDx=0;entryDy=0;" edge="1" parent="1" source="CUxsv4Kta_BDDFA2uctb-8" target="CUxsv4Kta_BDDFA2uctb-9">
          <mxGeometry width="50" height="50" relative="1" as="geometry">
            <mxPoint x="400" y="380" as="sourcePoint" />
            <mxPoint x="450" y="330" as="targetPoint" />
          </mxGeometry>
        </mxCell>
        <mxCell id="CUxsv4Kta_BDDFA2uctb-18" value="G&lt;sub&gt;1&lt;/sub&gt;" style="endArrow=classic;html=1;rounded=0;fontSize=16;exitX=1;exitY=0.5;exitDx=0;exitDy=0;entryX=0;entryY=0.5;entryDx=0;entryDy=0;" edge="1" parent="1">
          <mxGeometry width="50" height="50" relative="1" as="geometry">
            <mxPoint x="201" y="159.5" as="sourcePoint" />
            <mxPoint x="280" y="159.5" as="targetPoint" />
          </mxGeometry>
        </mxCell>
        <mxCell id="CUxsv4Kta_BDDFA2uctb-19" value="G&lt;sub&gt;2&lt;/sub&gt;" style="endArrow=classic;html=1;rounded=0;fontSize=16;exitX=1;exitY=0.5;exitDx=0;exitDy=0;entryX=0;entryY=0.5;entryDx=0;entryDy=0;" edge="1" parent="1" source="CUxsv4Kta_BDDFA2uctb-2" target="CUxsv4Kta_BDDFA2uctb-3">
          <mxGeometry width="50" height="50" relative="1" as="geometry">
            <mxPoint x="460" y="380" as="sourcePoint" />
            <mxPoint x="510" y="330" as="targetPoint" />
          </mxGeometry>
        </mxCell>
        <mxCell id="CUxsv4Kta_BDDFA2uctb-20" value="G&lt;sub&gt;1&lt;/sub&gt;" style="endArrow=classic;html=1;rounded=0;fontSize=16;exitX=1;exitY=0.5;exitDx=0;exitDy=0;entryX=0;entryY=0.5;entryDx=0;entryDy=0;" edge="1" parent="1" source="CUxsv4Kta_BDDFA2uctb-4" target="CUxsv4Kta_BDDFA2uctb-5">
          <mxGeometry width="50" height="50" relative="1" as="geometry">
            <mxPoint x="460" y="380" as="sourcePoint" />
            <mxPoint x="270" y="320" as="targetPoint" />
          </mxGeometry>
        </mxCell>
        <mxCell id="CUxsv4Kta_BDDFA2uctb-21" value="G&lt;sub&gt;2&lt;/sub&gt;" style="endArrow=classic;html=1;rounded=0;fontSize=16;exitX=1;exitY=0.5;exitDx=0;exitDy=0;entryX=0;entryY=0.5;entryDx=0;entryDy=0;" edge="1" parent="1" source="CUxsv4Kta_BDDFA2uctb-5" target="CUxsv4Kta_BDDFA2uctb-6">
          <mxGeometry width="50" height="50" relative="1" as="geometry">
            <mxPoint x="460" y="380" as="sourcePoint" />
            <mxPoint x="440" y="330" as="targetPoint" />
          </mxGeometry>
        </mxCell>
        <mxCell id="CUxsv4Kta_BDDFA2uctb-23" value="P&lt;sub&gt;3&lt;/sub&gt;" style="curved=1;endArrow=classic;html=1;rounded=0;fontSize=16;exitX=0.363;exitY=0.988;exitDx=0;exitDy=0;entryX=0.625;entryY=1;entryDx=0;entryDy=0;exitPerimeter=0;entryPerimeter=0;" edge="1" parent="1" source="CUxsv4Kta_BDDFA2uctb-6" target="CUxsv4Kta_BDDFA2uctb-6">
          <mxGeometry width="50" height="50" relative="1" as="geometry">
            <mxPoint x="460" y="380" as="sourcePoint" />
            <mxPoint x="510" y="330" as="targetPoint" />
            <Array as="points">
              <mxPoint x="450" y="380" />
              <mxPoint x="470" y="390" />
              <mxPoint x="510" y="390" />
            </Array>
          </mxGeometry>
        </mxCell>
        <mxCell id="CUxsv4Kta_BDDFA2uctb-24" value="P&lt;sub&gt;1&lt;/sub&gt;" style="curved=1;endArrow=classic;html=1;rounded=0;fontSize=16;exitX=0.363;exitY=0.988;exitDx=0;exitDy=0;entryX=0.625;entryY=1;entryDx=0;entryDy=0;exitPerimeter=0;entryPerimeter=0;" edge="1" parent="1">
          <mxGeometry width="50" height="50" relative="1" as="geometry">
            <mxPoint x="149.03999999999996" y="197.99999999999997" as="sourcePoint" />
            <mxPoint x="170" y="198.96" as="targetPoint" />
            <Array as="points">
              <mxPoint x="130" y="218.96" />
              <mxPoint x="150" y="228.96" />
              <mxPoint x="190" y="228.96" />
            </Array>
          </mxGeometry>
        </mxCell>
        <mxCell id="CUxsv4Kta_BDDFA2uctb-25" value="" style="curved=1;endArrow=classic;html=1;rounded=0;fontSize=16;exitX=0.363;exitY=0.988;exitDx=0;exitDy=0;entryX=0.625;entryY=1;entryDx=0;entryDy=0;exitPerimeter=0;entryPerimeter=0;" edge="1" parent="1">
          <mxGeometry width="50" height="50" relative="1" as="geometry">
            <mxPoint x="310.03999999999996" y="199" as="sourcePoint" />
            <mxPoint x="331" y="199.96000000000004" as="targetPoint" />
            <Array as="points">
              <mxPoint x="291" y="219.96" />
              <mxPoint x="311" y="229.96" />
              <mxPoint x="351" y="229.96" />
            </Array>
          </mxGeometry>
        </mxCell>
        <mxCell id="CUxsv4Kta_BDDFA2uctb-27" value="P&lt;sub&gt;2&lt;/sub&gt;" style="edgeLabel;html=1;align=center;verticalAlign=middle;resizable=0;points=[];fontSize=16;" vertex="1" connectable="0" parent="CUxsv4Kta_BDDFA2uctb-25">
          <mxGeometry x="-0.0424" y="-2" relative="1" as="geometry">
            <mxPoint as="offset" />
          </mxGeometry>
        </mxCell>
        <mxCell id="CUxsv4Kta_BDDFA2uctb-28" value="" style="curved=1;endArrow=classic;html=1;rounded=0;fontSize=16;exitX=0.363;exitY=0.988;exitDx=0;exitDy=0;entryX=0.625;entryY=1;entryDx=0;entryDy=0;exitPerimeter=0;entryPerimeter=0;" edge="1" parent="1">
          <mxGeometry width="50" height="50" relative="1" as="geometry">
            <mxPoint x="310.03999999999996" y="359.03999999999996" as="sourcePoint" />
            <mxPoint x="331" y="360" as="targetPoint" />
            <Array as="points">
              <mxPoint x="291" y="380" />
              <mxPoint x="311" y="390" />
              <mxPoint x="351" y="390" />
            </Array>
          </mxGeometry>
        </mxCell>
        <mxCell id="CUxsv4Kta_BDDFA2uctb-33" value="P&lt;sub&gt;2&lt;/sub&gt;" style="edgeLabel;html=1;align=center;verticalAlign=middle;resizable=0;points=[];fontSize=16;" vertex="1" connectable="0" parent="CUxsv4Kta_BDDFA2uctb-28">
          <mxGeometry x="-0.0582" y="1" relative="1" as="geometry">
            <mxPoint as="offset" />
          </mxGeometry>
        </mxCell>
        <mxCell id="CUxsv4Kta_BDDFA2uctb-29" value="P&lt;sub&gt;1&lt;/sub&gt;" style="curved=1;endArrow=classic;html=1;rounded=0;fontSize=16;exitX=0.363;exitY=0.988;exitDx=0;exitDy=0;entryX=0.625;entryY=1;entryDx=0;entryDy=0;exitPerimeter=0;entryPerimeter=0;" edge="1" parent="1">
          <mxGeometry width="50" height="50" relative="1" as="geometry">
            <mxPoint x="149.03999999999996" y="358.03999999999996" as="sourcePoint" />
            <mxPoint x="170" y="359" as="targetPoint" />
            <Array as="points">
              <mxPoint x="130" y="379" />
              <mxPoint x="150" y="389" />
              <mxPoint x="190" y="389" />
            </Array>
          </mxGeometry>
        </mxCell>
        <mxCell id="CUxsv4Kta_BDDFA2uctb-30" value="P&lt;sub&gt;1&lt;/sub&gt;" style="curved=1;endArrow=classic;html=1;rounded=0;fontSize=16;exitX=0.363;exitY=0.988;exitDx=0;exitDy=0;entryX=0.625;entryY=1;entryDx=0;entryDy=0;exitPerimeter=0;entryPerimeter=0;" edge="1" parent="1">
          <mxGeometry width="50" height="50" relative="1" as="geometry">
            <mxPoint x="150.03999999999996" y="519.04" as="sourcePoint" />
            <mxPoint x="171" y="520" as="targetPoint" />
            <Array as="points">
              <mxPoint x="131" y="540" />
              <mxPoint x="151" y="550" />
              <mxPoint x="191" y="550" />
            </Array>
          </mxGeometry>
        </mxCell>
        <mxCell id="CUxsv4Kta_BDDFA2uctb-31" value="P&lt;sub&gt;2&lt;/sub&gt;" style="curved=1;endArrow=classic;html=1;rounded=0;fontSize=16;exitX=0.363;exitY=0.988;exitDx=0;exitDy=0;entryX=0.625;entryY=1;entryDx=0;entryDy=0;exitPerimeter=0;entryPerimeter=0;" edge="1" parent="1">
          <mxGeometry width="50" height="50" relative="1" as="geometry">
            <mxPoint x="309.03999999999996" y="518.04" as="sourcePoint" />
            <mxPoint x="330" y="519" as="targetPoint" />
            <Array as="points">
              <mxPoint x="290" y="539" />
              <mxPoint x="310" y="549" />
              <mxPoint x="350" y="549" />
            </Array>
          </mxGeometry>
        </mxCell>
        <mxCell id="CUxsv4Kta_BDDFA2uctb-32" value="" style="curved=1;endArrow=classic;html=1;rounded=0;fontSize=16;exitX=0.363;exitY=0.988;exitDx=0;exitDy=0;entryX=0.625;entryY=1;entryDx=0;entryDy=0;exitPerimeter=0;entryPerimeter=0;" edge="1" parent="1">
          <mxGeometry width="50" height="50" relative="1" as="geometry">
            <mxPoint x="470.03999999999996" y="519.04" as="sourcePoint" />
            <mxPoint x="491" y="520" as="targetPoint" />
            <Array as="points">
              <mxPoint x="451" y="540" />
              <mxPoint x="471" y="550" />
              <mxPoint x="511" y="550" />
            </Array>
          </mxGeometry>
        </mxCell>
        <mxCell id="CUxsv4Kta_BDDFA2uctb-34" value="P&lt;sub&gt;3&lt;/sub&gt;" style="edgeLabel;html=1;align=center;verticalAlign=middle;resizable=0;points=[];fontSize=16;" vertex="1" connectable="0" parent="CUxsv4Kta_BDDFA2uctb-32">
          <mxGeometry x="-0.0267" y="-3" relative="1" as="geometry">
            <mxPoint as="offset" />
          </mxGeometry>
        </mxCell>
        <mxCell id="CUxsv4Kta_BDDFA2uctb-35" value="" style="curved=1;endArrow=classic;html=1;rounded=0;fontSize=16;entryX=0.5;entryY=0;entryDx=0;entryDy=0;" edge="1" parent="1" target="CUxsv4Kta_BDDFA2uctb-4">
          <mxGeometry width="50" height="50" relative="1" as="geometry">
            <mxPoint x="480" y="280" as="sourcePoint" />
            <mxPoint x="161" y="275" as="targetPoint" />
            <Array as="points">
              <mxPoint x="280" y="235" />
            </Array>
          </mxGeometry>
        </mxCell>
        <mxCell id="CUxsv4Kta_BDDFA2uctb-37" value="F&lt;sub&gt; &lt;/sub&gt;NZMS" style="edgeLabel;html=1;align=center;verticalAlign=middle;resizable=0;points=[];fontSize=16;" vertex="1" connectable="0" parent="CUxsv4Kta_BDDFA2uctb-35">
          <mxGeometry x="-0.0267" y="15" relative="1" as="geometry">
            <mxPoint as="offset" />
          </mxGeometry>
        </mxCell>
        <mxCell id="CUxsv4Kta_BDDFA2uctb-38" value="" style="curved=1;endArrow=classic;html=1;rounded=0;fontSize=16;entryX=0.5;entryY=0;entryDx=0;entryDy=0;" edge="1" parent="1">
          <mxGeometry width="50" height="50" relative="1" as="geometry">
            <mxPoint x="479.5" y="440" as="sourcePoint" />
            <mxPoint x="160.5" y="440" as="targetPoint" />
            <Array as="points">
              <mxPoint x="279.5" y="395" />
            </Array>
          </mxGeometry>
        </mxCell>
        <mxCell id="CUxsv4Kta_BDDFA2uctb-39" value="F HYDO" style="edgeLabel;html=1;align=center;verticalAlign=middle;resizable=0;points=[];fontSize=16;" vertex="1" connectable="0" parent="CUxsv4Kta_BDDFA2uctb-38">
          <mxGeometry x="-0.0267" y="15" relative="1" as="geometry">
            <mxPoint x="1" as="offset" />
          </mxGeometry>
        </mxCell>
        <mxCell id="CUxsv4Kta_BDDFA2uctb-40" value="" style="curved=1;endArrow=classic;html=1;rounded=0;fontSize=16;entryX=0.5;entryY=0;entryDx=0;entryDy=0;" edge="1" parent="1">
          <mxGeometry width="50" height="50" relative="1" as="geometry">
            <mxPoint x="478" y="120" as="sourcePoint" />
            <mxPoint x="159" y="120" as="targetPoint" />
            <Array as="points">
              <mxPoint x="278" y="75" />
            </Array>
          </mxGeometry>
        </mxCell>
        <mxCell id="CUxsv4Kta_BDDFA2uctb-41" value="F&lt;sub&gt; &lt;/sub&gt;BAET" style="edgeLabel;html=1;align=center;verticalAlign=middle;resizable=0;points=[];fontSize=16;" vertex="1" connectable="0" parent="CUxsv4Kta_BDDFA2uctb-40">
          <mxGeometry x="-0.0267" y="15" relative="1" as="geometry">
            <mxPoint as="offset" />
          </mxGeometry>
        </mxCell>
        <mxCell id="CUxsv4Kta_BDDFA2uctb-43" value="" style="curved=1;endArrow=classic;html=1;rounded=0;fontSize=16;" edge="1" parent="1">
          <mxGeometry width="50" height="50" relative="1" as="geometry">
            <mxPoint x="320" y="280" as="sourcePoint" />
            <mxPoint x="160" y="280" as="targetPoint" />
            <Array as="points">
              <mxPoint x="320" y="280" />
              <mxPoint x="260" y="260" />
            </Array>
          </mxGeometry>
        </mxCell>
      </root>
    </mxGraphModel>
  </diagram>
</mxfile>
